<?xml version="1.0" encoding="UTF-8"?>
<!DOCTYPE svg PUBLIC "-//W3C//DTD SVG 1.1//EN" "http://www.w3.org/Graphics/SVG/1.1/DTD/svg11.dtd">
<!-- Creator: CorelDRAW 2017 -->
<svg xmlns="http://www.w3.org/2000/svg" xml:space="preserve" width="380px" height="60px" version="1.1" style="shape-rendering:geometricPrecision; text-rendering:geometricPrecision; image-rendering:optimizeQuality; fill-rule:evenodd; clip-rule:evenodd"
viewBox="0 0 380 60"
 xmlns:xlink="http://www.w3.org/1999/xlink"
 baseProfile="basic">
 <defs>
  <style type="text/css">
   <![CDATA[
    .str0 {stroke:#0F77BC;stroke-width:0.9;stroke-miterlimit:2.61313}
    .fil1 {fill:none;fill-rule:nonzero}
    .fil0 {fill:#666666}
    .fil2 {fill:#2B2A29;fill-rule:nonzero}
   ]]>
  </style>
 </defs>
 <g id="Layer_x0020_1">
  <metadata id="CorelCorpID_0Corel-Layer"/>
  <g id="_3178229200368">
   <g>
    <path class="fil0" d="M233.76 28.82l1.43 0 0.15 2.61 0.11 0c1.84,-1.73 3.72,-3.03 6.19,-3.03 3.72,0 5.45,2.11 5.45,6.47l0 10.83 -1.66 0 0 -10.62c0,-3.58 -1.2,-5.27 -4.12,-5.27 -2.14,0 -3.68,1.05 -5.89,3.16l0 12.73 -1.66 0 0 -16.88z"/>
    <path id="1" class="fil1 str0" d="M233.76 28.82l1.43 0 0.15 2.61 0.11 0c1.84,-1.73 3.72,-3.03 6.19,-3.03 3.72,0 5.45,2.11 5.45,6.47l0 10.83 -1.66 0 0 -10.62c0,-3.58 -1.2,-5.27 -4.12,-5.27 -2.14,0 -3.68,1.05 -5.89,3.16l0 12.73 -1.66 0 0 -16.88z"/>
   </g>
   <g>
    <path class="fil0" d="M260.06 28.4c4.28,0 6.9,2.85 6.9,7.81 0,0.42 0,0.84 -0.07,1.26l-12.99 0c0.08,4.26 2.74,7.32 6.8,7.32 1.95,0 3.49,-0.6 4.84,-1.51l0.67 1.19c-1.42,0.81 -3.04,1.66 -5.66,1.66 -4.62,0 -8.33,-3.31 -8.33,-8.83 0,-5.52 3.82,-8.9 7.84,-8.9zm5.33 7.88c0,-4.33 -2.07,-6.54 -5.29,-6.54 -3.08,0 -5.82,2.49 -6.2,6.54l11.49 0z"/>
    <path id="1" class="fil1 str0" d="M260.06 28.4c4.28,0 6.9,2.85 6.9,7.81 0,0.42 0,0.84 -0.07,1.26l-12.99 0c0.08,4.26 2.74,7.32 6.8,7.32 1.95,0 3.49,-0.6 4.84,-1.51l0.67 1.19c-1.42,0.81 -3.04,1.66 -5.66,1.66 -4.62,0 -8.33,-3.31 -8.33,-8.83 0,-5.52 3.82,-8.9 7.84,-8.9zm5.33 7.88c0,-4.33 -2.07,-6.54 -5.29,-6.54 -3.08,0 -5.82,2.49 -6.2,6.54l11.49 0z"/>
   </g>
   <g>
    <path class="fil0" d="M272.33 30.16l-2.82 0 0 -1.2 2.86 -0.14 0.22 -4.88 1.43 0 0 4.88 5.21 0 0 1.34 -5.21 0 0 11.01c0,2.14 0.56,3.58 3.04,3.58 0.67,0 1.61,-0.24 2.25,-0.52l0.45 1.26c-1.05,0.35 -2.18,0.64 -2.93,0.64 -3.49,0 -4.5,-2.08 -4.5,-5.1l0 -10.87 0 0z"/>
    <path id="1" class="fil1 str0" d="M272.33 30.16l-2.82 0 0 -1.2 2.86 -0.14 0.22 -4.88 1.43 0 0 4.88 5.21 0 0 1.34 -5.21 0 0 11.01c0,2.14 0.56,3.58 3.04,3.58 0.67,0 1.61,-0.24 2.25,-0.52l0.45 1.26c-1.05,0.35 -2.18,0.64 -2.93,0.64 -3.49,0 -4.5,-2.08 -4.5,-5.1l0 -10.87 0 0z"/>
   </g>
   <g>
    <path class="fil0" d="M282.39 28.82l1.8 0 3.23 10.94c0.45,1.55 0.86,2.99 1.23,4.5l0.15 0c0.42,-1.51 0.87,-2.95 1.32,-4.5l3.26 -10.94 1.99 0 3.26 10.94c0.45,1.55 0.9,2.99 1.35,4.5l0.15 0c0.42,-1.51 0.87,-2.95 1.28,-4.5l3.19 -10.94 1.69 0 -5.18 16.88 -2.18 0 -3.15 -10.48c-0.52,-1.61 -0.86,-3.16 -1.39,-4.81l-0.15 0c-0.41,1.65 -0.86,3.27 -1.42,4.88l-3.12 10.41 -1.98 0 -5.33 -16.88z"/>
    <path id="1" class="fil1 str0" d="M282.39 28.82l1.8 0 3.23 10.94c0.45,1.55 0.86,2.99 1.23,4.5l0.15 0c0.42,-1.51 0.87,-2.95 1.32,-4.5l3.26 -10.94 1.99 0 3.26 10.94c0.45,1.55 0.9,2.99 1.35,4.5l0.15 0c0.42,-1.51 0.87,-2.95 1.28,-4.5l3.19 -10.94 1.69 0 -5.18 16.88 -2.18 0 -3.15 -10.48c-0.52,-1.61 -0.86,-3.16 -1.39,-4.81l-0.15 0c-0.41,1.65 -0.86,3.27 -1.42,4.88l-3.12 10.41 -1.98 0 -5.33 -16.88z"/>
   </g>
   <g>
    <path class="fil0" d="M317.02 28.4c4.35,0 8.1,3.24 8.1,8.9 0,5.59 -3.75,8.82 -8.1,8.82 -4.31,0 -8.07,-3.23 -8.07,-8.82 0,-5.66 3.76,-8.9 8.07,-8.9zm0 16.35c3.64,0 6.38,-3.02 6.38,-7.45 0,-4.47 -2.74,-7.53 -6.38,-7.53 -3.64,0 -6.34,3.06 -6.34,7.53 0,4.43 2.7,7.45 6.34,7.45z"/>
    <path id="1" class="fil1 str0" d="M317.02 28.4c4.35,0 8.1,3.24 8.1,8.9 0,5.59 -3.75,8.82 -8.1,8.82 -4.31,0 -8.07,-3.23 -8.07,-8.82 0,-5.66 3.76,-8.9 8.07,-8.9zm0 16.35c3.64,0 6.38,-3.02 6.38,-7.45 0,-4.47 -2.74,-7.53 -6.38,-7.53 -3.64,0 -6.34,3.06 -6.34,7.53 0,4.43 2.7,7.45 6.34,7.45z"/>
   </g>
   <g>
    <path class="fil0" d="M330.44 28.82l1.42 0 0.15 3.13 0.11 0c1.21,-2.07 2.97,-3.55 5.11,-3.55 0.67,0 1.2,0.07 1.8,0.35l-0.38 1.41c-0.6,-0.21 -0.94,-0.28 -1.65,-0.28 -1.61,0 -3.52,1.16 -4.91,4.32l0 11.5 -1.65 0 0 -16.88 0 0z"/>
    <path id="1" class="fil1 str0" d="M330.44 28.82l1.42 0 0.15 3.13 0.11 0c1.21,-2.07 2.97,-3.55 5.11,-3.55 0.67,0 1.2,0.07 1.8,0.35l-0.38 1.41c-0.6,-0.21 -0.94,-0.28 -1.65,-0.28 -1.61,0 -3.52,1.16 -4.91,4.32l0 11.5 -1.65 0 0 -16.88 0 0z"/>
   </g>
   <g>
    <polygon class="fil0" points="342.84,20.42 344.49,20.42 344.49,39.06 344.57,39.06 353.46,28.82 355.38,28.82 349.52,35.51 356.35,45.7 354.51,45.7 348.55,36.67 344.49,41.1 344.49,45.7 342.84,45.7 342.84,20.42 "/>
    <polygon id="1" class="fil1 str0" points="342.84,20.42 344.49,20.42 344.49,39.06 344.57,39.06 353.46,28.82 355.38,28.82 349.52,35.51 356.35,45.7 354.51,45.7 348.55,36.67 344.49,41.1 344.49,45.7 342.84,45.7 342.84,20.42 "/>
   </g>
  </g>
  <g>
   <path class="fil2" d="M13.88 47.75l0 -34.17 25.29 0 0 5.78 -18.37 0 0 7.59 17.08 0 0 5.77 -17.08 0 0 9.26 19.04 0 0 5.77 -25.96 0zm54.31 0l-6.54 0 0 -12.62c0,-2.67 -0.14,-4.4 -0.42,-5.18 -0.29,-0.78 -0.74,-1.39 -1.38,-1.83 -0.63,-0.43 -1.4,-0.65 -2.29,-0.65 -1.14,0 -2.17,0.31 -3.08,0.93 -0.91,0.62 -1.53,1.45 -1.87,2.47 -0.34,1.02 -0.5,2.92 -0.5,5.69l0 11.19 -6.54 0 0 -24.77 6.06 0 0 3.64c2.17,-2.78 4.9,-4.16 8.2,-4.16 1.45,0 2.77,0.26 3.98,0.78 1.21,0.52 2.11,1.18 2.72,1.99 0.63,0.81 1.05,1.72 1.29,2.75 0.25,1.03 0.37,2.49 0.37,4.4l0 15.37zm6.62 -28.11l0 -6.06 6.54 0 0 6.06 -6.54 0zm0 28.11l0 -24.77 6.54 0 0 24.77 -6.54 0zm18.01 0l-8.04 -34.17 7.11 0 5.09 23.48 6.23 -23.48 8.23 0 5.96 23.87 5.2 -23.87 6.95 0 -8.23 34.17 -7.39 0 -6.74 -25.54 -6.79 25.54 -7.58 0zm68.5 0l-7.45 0 -2.96 -7.77 -13.7 0 -2.84 7.77 -7.32 0 13.27 -34.17 7.31 0 13.69 34.17zm-12.65 -13.55l-4.75 -12.65 -4.61 12.65 9.36 0zm16.33 13.55l0 -34.17 14.54 0c3.65,0 6.3,0.31 7.96,0.93 1.66,0.61 2.98,1.7 3.97,3.26 1,1.58 1.5,3.37 1.5,5.39 0,2.57 -0.75,4.68 -2.25,6.36 -1.5,1.67 -3.75,2.72 -6.74,3.15 1.49,0.87 2.71,1.82 3.68,2.87 0.97,1.04 2.27,2.89 3.91,5.55l4.17 6.66 -8.25 0 -4.95 -7.46c-1.77,-2.65 -2.99,-4.32 -3.65,-5.01 -0.65,-0.68 -1.34,-1.16 -2.08,-1.41 -0.74,-0.26 -1.9,-0.39 -3.49,-0.39l-1.4 0 0 14.27 -6.92 0zm6.92 -19.71l5.11 0c3.31,0 5.37,-0.14 6.2,-0.42 0.81,-0.28 1.47,-0.76 1.93,-1.45 0.47,-0.68 0.7,-1.54 0.7,-2.56 0,-1.16 -0.31,-2.08 -0.92,-2.8 -0.62,-0.7 -1.48,-1.15 -2.6,-1.33 -0.56,-0.08 -2.24,-0.12 -5.03,-0.12l-5.39 0 0 8.68zm27.55 19.71l0 -34.17 25.29 0 0 5.78 -18.37 0 0 7.59 17.08 0 0 5.77 -17.08 0 0 9.26 19.04 0 0 5.77 -25.96 0z"/>
   <path id="1" class="fil1 str0" d="M13.88 47.75l0 -34.17 25.29 0 0 5.78 -18.37 0 0 7.59 17.08 0 0 5.77 -17.08 0 0 9.26 19.04 0 0 5.77 -25.96 0zm54.31 0l-6.54 0 0 -12.62c0,-2.67 -0.14,-4.4 -0.42,-5.18 -0.29,-0.78 -0.74,-1.39 -1.38,-1.83 -0.63,-0.43 -1.4,-0.65 -2.29,-0.65 -1.14,0 -2.17,0.31 -3.08,0.93 -0.91,0.62 -1.53,1.45 -1.87,2.47 -0.34,1.02 -0.5,2.92 -0.5,5.69l0 11.19 -6.54 0 0 -24.77 6.06 0 0 3.64c2.17,-2.78 4.9,-4.16 8.2,-4.16 1.45,0 2.77,0.26 3.98,0.78 1.21,0.52 2.11,1.18 2.72,1.99 0.63,0.81 1.05,1.72 1.29,2.75 0.25,1.03 0.37,2.49 0.37,4.4l0 15.37zm6.62 -28.11l0 -6.06 6.54 0 0 6.06 -6.54 0zm0 28.11l0 -24.77 6.54 0 0 24.77 -6.54 0zm18.01 0l-8.04 -34.17 7.11 0 5.09 23.48 6.23 -23.48 8.23 0 5.96 23.87 5.2 -23.87 6.95 0 -8.23 34.17 -7.39 0 -6.74 -25.54 -6.79 25.54 -7.58 0zm68.5 0l-7.45 0 -2.96 -7.77 -13.7 0 -2.84 7.77 -7.32 0 13.27 -34.17 7.31 0 13.69 34.17zm-12.65 -13.55l-4.75 -12.65 -4.61 12.65 9.36 0zm16.33 13.55l0 -34.17 14.54 0c3.65,0 6.3,0.31 7.96,0.93 1.66,0.61 2.98,1.7 3.97,3.26 1,1.58 1.5,3.37 1.5,5.39 0,2.57 -0.75,4.68 -2.25,6.36 -1.5,1.67 -3.75,2.72 -6.74,3.15 1.49,0.87 2.71,1.82 3.68,2.87 0.97,1.04 2.27,2.89 3.91,5.55l4.17 6.66 -8.25 0 -4.95 -7.46c-1.77,-2.65 -2.99,-4.32 -3.65,-5.01 -0.65,-0.68 -1.34,-1.16 -2.08,-1.41 -0.74,-0.26 -1.9,-0.39 -3.49,-0.39l-1.4 0 0 14.27 -6.92 0zm6.92 -19.71l5.11 0c3.31,0 5.37,-0.14 6.2,-0.42 0.81,-0.28 1.47,-0.76 1.93,-1.45 0.47,-0.68 0.7,-1.54 0.7,-2.56 0,-1.16 -0.31,-2.08 -0.92,-2.8 -0.62,-0.7 -1.48,-1.15 -2.6,-1.33 -0.56,-0.08 -2.24,-0.12 -5.03,-0.12l-5.39 0 0 8.68zm27.55 19.71l0 -34.17 25.29 0 0 5.78 -18.37 0 0 7.59 17.08 0 0 5.77 -17.08 0 0 9.26 19.04 0 0 5.77 -25.96 0z"/>
  </g>
 </g>
</svg>
